<svg width="152" height="85" viewBox="0 0 152 85" fill="none" xmlns="http://www.w3.org/2000/svg">
  <g clip-path="url(#clip0_9969_44853)">
    <path d="M43.2002 13H23.4702L15.4102 33.39H39.5402L43.2002 13Z" fill="#F0F1F2"/>
    <path d="M13.04 39.3901L0 72.3701H32.57L38.47 39.3901H13.04Z" fill="#F0F1F2"/>
    <path d="M136 33.39L127.94 13H108.21L111.86 33.39H136Z" fill="#F0F1F2"/>
    <path d="M105.77 33.39L102.11 13H78.7002V33.39H105.77Z" fill="#F0F1F2"/>
    <path d="M72.6996 33.39V13H49.2896L45.6396 33.39H72.6996Z" fill="#F0F1F2"/>
    <path fill-rule="evenodd" clip-rule="evenodd" d="M144 53.6281V62C144 67.5229 139.523 72 134 72H118.774L112.94 39.3901H138.37L144 53.6281Z" fill="#F0F1F2"/>
    <path d="M78.7002 39.3901V72.3701H112.75L106.84 39.3901H78.7002Z" fill="#F0F1F2"/>
    <path d="M44.5702 39.3901L38.6602 72.3701H72.7002V39.3901H44.5702Z" fill="#F0F1F2"/>
    <path d="M112.94 39.3901H138.37L136 33.3901H111.86L112.94 39.3901Z" fill="white"/>
    <path d="M78.7002 33.3901V39.3901H106.84L105.77 33.3901H78.7002Z" fill="white"/>
    <path d="M45.6403 33.3901L44.5703 39.3901H72.7003V33.3901H45.6403Z" fill="white"/>
    <path d="M39.54 33.3901H15.41L13.04 39.3901H38.47L39.54 33.3901Z" fill="white"/>
    <path d="M45.64 33.39L49.29 13H43.2L39.54 33.39H45.64Z" fill="white"/>
    <path d="M38.4703 39.3901L32.5703 72.3701H38.6603L44.5703 39.3901H38.4703Z" fill="white"/>
    <path d="M39.5397 33.3901L38.4697 39.3901H44.5697L45.6397 33.3901H39.5397Z" fill="white"/>
    <path d="M78.7002 13H72.7002V33.39H78.7002V13Z" fill="white"/>
    <path d="M78.7002 39.3901H72.7002V72.3601H78.7002V39.3901Z" fill="white"/>
    <path d="M78.7002 33.3901H72.7002V39.3901H78.7002V33.3901Z" fill="white"/>
    <path d="M111.86 33.39L108.21 13H102.11L105.77 33.39H111.86Z" fill="white"/>
    <path d="M105.77 33.3901L106.84 39.3901H112.94L111.86 33.3901H105.77Z" fill="white"/>
  </g>
  <ellipse cx="60" cy="26.667" rx="8" ry="4" fill="#7F8EFB"/>
  <path fill-rule="evenodd" clip-rule="evenodd" d="M60.3834 1.33869C54.2598 1.15399 49.3358 5.92192 49.3358 11.8126C49.3358 11.8397 49.3353 11.8756 49.3347 11.917C49.3333 12.0225 49.3313 12.1638 49.3359 12.2848C49.3456 20.0848 55.9352 23.8832 58.4613 25.3393L58.4817 25.3511C59.4317 25.9002 60.6076 25.9039 61.5617 25.3583C64.0834 23.9153 70.6663 20.1416 70.6663 12.2675V11.9086C70.6663 6.32296 66.1894 1.51293 60.3834 1.33869ZM56.5537 11.9375C56.5537 9.98352 58.1861 8.39477 60.2048 8.39477C62.2234 8.39477 63.8558 9.98352 63.8558 11.9375C63.8558 13.8929 62.2233 15.4815 60.2048 15.4815C58.1863 15.4815 56.5537 13.8929 56.5537 11.9375Z" fill="#B3BCFF"/>
  <g clip-path="url(#clip1_9969_44853)">
    <path fill-rule="evenodd" clip-rule="evenodd" d="M121.546 72L100.785 72L84.9445 44.5642C82.4631 40.2661 83.9316 34.7653 88.2361 32.2801C92.5341 29.7986 98.035 31.2671 100.52 35.5716L115.576 61.6486L121.546 72Z" fill="#FFCAB4"/>
    <path d="M97.6745 46.5545L95.8847 47.5878C93.261 49.1026 89.9117 48.2052 88.3969 45.5815L85.8598 41.1872C84.0598 38.0695 85.1281 34.0827 88.2458 32.2827C91.3635 30.4827 95.3503 31.551 97.1503 34.6687L99.6873 39.063C101.202 41.6867 100.305 45.036 97.6809 46.5508L97.6745 46.5545Z" fill="#EFB9A2"/>
    <path d="M97.6176 45.8176L95.2762 47.1694C93.1207 48.4139 90.3583 47.6737 89.1139 45.5182L85.6435 39.5074C84.025 36.704 84.9848 33.122 87.7881 31.5035C90.5915 29.885 94.1735 30.8448 95.792 33.6481L99.2624 39.659C100.507 41.8144 99.7667 44.5768 97.6112 45.8213L97.6176 45.8176Z" fill="#FFDFD1"/>
  </g>
  <defs>
    <clipPath id="clip0_9969_44853">
      <rect width="151.41" height="59.37" fill="white" transform="translate(0 13)"/>
    </clipPath>
    <clipPath id="clip1_9969_44853">
      <rect width="18" height="56" fill="white" transform="translate(80 36) rotate(-30)"/>
    </clipPath>
  </defs>
</svg>
